<svg width="256" height="96" viewBox="0 0 256 96" fill="none" xmlns="http://www.w3.org/2000/svg">
<g clip-path="url(#clip0_1_2)">
<mask id="path-1-outside-1_1_2" maskUnits="userSpaceOnUse" x="9" y="5" width="70" height="83" fill="black">
<rect fill="white" x="9" y="5" width="70" height="83"/>
<path d="M54.688 19.328V24.512C54.688 27.032 54.4 27.32 52.312 27.392L41.728 27.608V32.72C41.728 34.448 41.512 36.248 42.88 37.184L55.192 45.608C56.416 46.472 56.344 47.264 55.552 48.344L50.872 54.32C50.008 55.472 49.072 55.04 47.92 54.248L35.608 45.896L23.728 54.968C22.576 55.832 21.856 56.12 20.776 55.04L15.664 49.568C14.8 48.632 14.944 47.768 16.024 46.832L28.336 37.184C29.56 36.104 29.488 34.448 29.488 32.72V27.896L18.76 28.112C16.744 28.184 16.384 27.752 16.384 25.232V20.048C16.384 17.528 16.744 17.24 18.76 17.168L29.488 16.952V14.36C29.488 11.84 30.208 11.12 32.224 11.12H38.992C41.008 11.12 41.728 11.84 41.728 14.36V16.664L52.312 16.448C54.4 16.376 54.688 16.808 54.688 19.328ZM68.656 81.248L30.856 81.968C28.768 82.04 28.12 81.248 28.12 78.728V60.728C28.12 58.208 28.84 57.488 30.856 57.488H37.624C39.712 57.488 40.36 58.208 40.36 60.728V70.88L68.8 70.304C70.528 70.232 71.032 70.88 71.032 72.824V78.728C71.032 80.672 70.6 81.176 68.656 81.248ZM60.304 54.68V40.28L53.608 40.424C51.88 40.496 51.232 39.992 51.232 38.336V31.568C51.232 29.912 51.88 29.552 53.608 29.48L60.304 29.336V18.968C60.304 16.448 61.024 15.728 63.04 15.728H69.808C71.896 15.728 72.544 16.448 72.544 18.968V54.68C72.544 57.2 71.896 57.92 69.808 57.92H63.04C61.024 57.92 60.304 57.2 60.304 54.68Z"/>
</mask>
<path d="M54.688 19.328V24.512C54.688 27.032 54.4 27.32 52.312 27.392L41.728 27.608V32.72C41.728 34.448 41.512 36.248 42.88 37.184L55.192 45.608C56.416 46.472 56.344 47.264 55.552 48.344L50.872 54.32C50.008 55.472 49.072 55.04 47.92 54.248L35.608 45.896L23.728 54.968C22.576 55.832 21.856 56.12 20.776 55.04L15.664 49.568C14.8 48.632 14.944 47.768 16.024 46.832L28.336 37.184C29.56 36.104 29.488 34.448 29.488 32.72V27.896L18.76 28.112C16.744 28.184 16.384 27.752 16.384 25.232V20.048C16.384 17.528 16.744 17.24 18.76 17.168L29.488 16.952V14.36C29.488 11.84 30.208 11.12 32.224 11.12H38.992C41.008 11.12 41.728 11.84 41.728 14.36V16.664L52.312 16.448C54.4 16.376 54.688 16.808 54.688 19.328ZM68.656 81.248L30.856 81.968C28.768 82.04 28.12 81.248 28.12 78.728V60.728C28.12 58.208 28.84 57.488 30.856 57.488H37.624C39.712 57.488 40.36 58.208 40.36 60.728V70.88L68.8 70.304C70.528 70.232 71.032 70.88 71.032 72.824V78.728C71.032 80.672 70.6 81.176 68.656 81.248ZM60.304 54.68V40.28L53.608 40.424C51.88 40.496 51.232 39.992 51.232 38.336V31.568C51.232 29.912 51.88 29.552 53.608 29.48L60.304 29.336V18.968C60.304 16.448 61.024 15.728 63.04 15.728H69.808C71.896 15.728 72.544 16.448 72.544 18.968V54.68C72.544 57.2 71.896 57.92 69.808 57.92H63.04C61.024 57.92 60.304 57.2 60.304 54.68Z" fill="white"/>
<path d="M52.312 27.392L52.4344 33.3908L52.4766 33.3899L52.5188 33.3884L52.312 27.392ZM41.728 27.608L41.6056 21.6092L35.728 21.7292V27.608H41.728ZM42.88 37.184L46.2681 32.2322L46.2681 32.2322L42.88 37.184ZM55.192 45.608L58.6521 40.7062L58.6163 40.6809L58.5801 40.6562L55.192 45.608ZM55.552 48.344L60.2758 52.0434L60.3343 51.9687L60.3904 51.8922L55.552 48.344ZM50.872 54.32L46.1482 50.6206L46.1096 50.6699L46.072 50.72L50.872 54.32ZM47.92 54.248L51.3192 49.3037L51.3038 49.2932L51.2883 49.2827L47.92 54.248ZM35.608 45.896L38.9763 40.9307L35.4006 38.505L31.9665 41.1274L35.608 45.896ZM23.728 54.968L27.328 59.768L27.3488 59.7524L27.3695 59.7366L23.728 54.968ZM20.776 55.04L16.3916 59.136L16.4612 59.2105L16.5334 59.2826L20.776 55.04ZM15.664 49.568L11.2552 53.6377L11.2673 53.6509L11.2796 53.664L15.664 49.568ZM16.024 46.832L12.3232 42.1093L12.2065 42.2008L12.0944 42.2979L16.024 46.832ZM28.336 37.184L32.0368 41.9067L32.1745 41.7988L32.3057 41.683L28.336 37.184ZM29.488 27.896H35.488V21.774L29.3672 21.8972L29.488 27.896ZM18.76 28.112L18.6392 22.1132L18.5925 22.1142L18.5459 22.1158L18.76 28.112ZM18.76 17.168L18.6392 11.1692L18.5925 11.1702L18.5459 11.1718L18.76 17.168ZM29.488 16.952L29.6088 22.9508L35.488 22.8324V16.952H29.488ZM41.728 16.664H35.728V22.7877L41.8504 22.6627L41.728 16.664ZM52.312 16.448L52.4344 22.4467L52.4766 22.4459L52.5188 22.4444L52.312 16.448ZM68.656 81.248L68.7703 87.2469L68.8242 87.2459L68.8781 87.2439L68.656 81.248ZM30.856 81.968L30.7417 75.9691L30.6955 75.97L30.6492 75.9716L30.856 81.968ZM40.36 70.88H34.36V77.0027L40.4815 76.8788L40.36 70.88ZM68.8 70.304L68.9215 76.3028L68.9857 76.3015L69.0498 76.2988L68.8 70.304ZM60.304 40.28H66.304V34.1496L60.175 34.2814L60.304 40.28ZM53.608 40.424L53.479 34.4254L53.4186 34.4267L53.3582 34.4292L53.608 40.424ZM53.608 29.48L53.479 23.4814L53.4186 23.4827L53.3582 23.4852L53.608 29.48ZM60.304 29.336L60.433 35.3346L66.304 35.2084V29.336H60.304ZM48.688 19.328V24.512H60.688V19.328H48.688ZM48.688 24.512C48.688 25.1131 48.6645 25.2029 48.682 25.0909C48.6996 24.9778 48.8484 24.0102 49.6908 23.0084C50.6223 21.9008 51.7239 21.5366 52.1716 21.4298C52.4895 21.354 52.6113 21.3781 52.1052 21.3956L52.5188 33.3884C53.0567 33.3699 53.9975 33.331 54.9566 33.1022C56.0456 32.8424 57.6108 32.2352 58.8752 30.7316C60.0506 29.3338 60.4019 27.8172 60.5388 26.9391C60.6755 26.0621 60.688 25.1709 60.688 24.512H48.688ZM52.1896 21.3932L41.6056 21.6092L41.8504 33.6067L52.4344 33.3908L52.1896 21.3932ZM35.728 27.608V32.72H47.728V27.608H35.728ZM35.728 32.72C35.728 33.0314 35.6521 34.7652 35.8569 36.1357C36.1148 37.8615 36.9348 40.3862 39.4919 42.1358L46.2681 32.2322C46.7746 32.5787 47.1742 33.0492 47.4336 33.5424C47.6665 33.9854 47.7182 34.3162 47.7251 34.3623C47.7304 34.3979 47.7165 34.3196 47.7156 33.999C47.7152 33.8463 47.7174 33.6813 47.7207 33.4592C47.7238 33.2541 47.728 32.9895 47.728 32.72H35.728ZM39.4919 42.1358L51.8039 50.5598L58.5801 40.6562L46.2681 32.2322L39.4919 42.1358ZM51.7319 50.5098C51.6948 50.4836 51.3637 50.25 51.0058 49.7526C50.6043 49.1946 50.2296 48.3835 50.1479 47.3832C49.9985 45.5527 50.9321 44.4979 50.7136 44.7958L60.3904 51.8922C60.9639 51.1101 62.3295 49.1193 62.1081 46.4068C61.8607 43.3754 59.8758 41.57 58.6521 40.7062L51.7319 50.5098ZM50.8282 44.6446L46.1482 50.6206L55.5958 58.0194L60.2758 52.0434L50.8282 44.6446ZM46.072 50.72C46.2645 50.4633 46.7458 49.9129 47.611 49.4974C48.5427 49.05 49.4966 48.9618 50.2753 49.0628C50.9562 49.1511 51.3861 49.3668 51.4655 49.4072C51.5541 49.4523 51.5342 49.4516 51.3192 49.3037L44.5208 59.1923C45.0164 59.533 46.635 60.6913 48.7327 60.9632C49.9974 61.1272 51.4193 60.9805 52.8055 60.3148C54.1252 59.6811 55.0475 58.7527 55.672 57.92L46.072 50.72ZM51.2883 49.2827L38.9763 40.9307L32.2397 50.8613L44.5517 59.2133L51.2883 49.2827ZM31.9665 41.1274L20.0865 50.1994L27.3695 59.7366L39.2495 50.6646L31.9665 41.1274ZM20.128 50.168C19.9138 50.3286 19.943 50.2902 20.1053 50.2035C20.2828 50.1087 20.8272 49.8413 21.6396 49.7616C22.5422 49.6731 23.3938 49.8523 24.0795 50.174C24.6764 50.4541 24.9878 50.7666 25.0186 50.7974L16.5334 59.2826C17.6908 60.4401 19.8141 61.9981 22.8104 61.7044C25.1401 61.476 26.8402 60.1339 27.328 59.768L20.128 50.168ZM25.1604 50.944L20.0484 45.472L11.2796 53.664L16.3916 59.136L25.1604 50.944ZM20.0728 45.4983C20.3529 45.8017 21.3314 47.0726 21.0571 49.0319C20.9383 49.8798 20.6192 50.4974 20.3791 50.8566C20.151 51.1981 19.9589 51.3615 19.9536 51.3661L12.0944 42.2979C11.118 43.1441 9.5319 44.8042 9.17295 47.3681C8.77265 50.2274 10.1111 52.3982 11.2552 53.6377L20.0728 45.4983ZM19.7248 51.5547L32.0368 41.9067L24.6352 32.4613L12.3232 42.1093L19.7248 51.5547ZM32.3057 41.683C34.2407 39.9757 34.9902 37.8785 35.2797 36.2377C35.5293 34.8232 35.488 33.32 35.488 32.72H23.488C23.488 32.8362 23.4883 32.9526 23.4885 33.0558C23.4888 33.1624 23.4889 33.2587 23.4887 33.3517C23.4883 33.539 23.4866 33.6875 23.4828 33.8158C23.4748 34.085 23.4594 34.1685 23.4623 34.1523C23.4671 34.1252 23.5066 33.9122 23.655 33.6123C23.8155 33.288 24.056 32.9587 24.3663 32.685L32.3057 41.683ZM35.488 32.72V27.896H23.488V32.72H35.488ZM29.3672 21.8972L18.6392 22.1132L18.8808 34.1108L29.6088 33.8948L29.3672 21.8972ZM18.5459 22.1158C18.1536 22.1298 18.3757 22.0876 18.8266 22.1867C19.4382 22.3212 20.5407 22.7319 21.4418 23.8227C22.2278 24.7742 22.3742 25.6727 22.391 25.7743C22.4097 25.887 22.384 25.7927 22.384 25.232H10.384C10.384 25.9313 10.4033 26.836 10.5525 27.7362C10.6998 28.6253 11.0622 30.0998 12.1902 31.4653C13.4333 32.9701 15.0038 33.6328 16.2499 33.9068C17.3353 34.1454 18.3584 34.1302 18.9741 34.1082L18.5459 22.1158ZM22.384 25.232V20.048H10.384V25.232H22.384ZM22.384 20.048C22.384 19.481 22.4106 19.4117 22.3863 19.554C22.3601 19.7075 22.1903 20.6468 21.3569 21.6117C20.4485 22.6636 19.3923 23.0189 18.9447 23.1268C18.6234 23.2043 18.494 23.1813 18.9741 23.1642L18.5459 11.1718C18.018 11.1907 17.0876 11.2307 16.1318 11.4612C15.0497 11.7221 13.5255 12.3204 12.2751 13.7683C11.0997 15.1292 10.7139 16.6175 10.5572 17.536C10.4024 18.4432 10.384 19.355 10.384 20.048H22.384ZM18.8808 23.1668L29.6088 22.9508L29.3672 10.9532L18.6392 11.1692L18.8808 23.1668ZM35.488 16.952V14.36H23.488V16.952H35.488ZM35.488 14.36C35.488 13.9691 35.5207 13.9596 35.4733 14.1614C35.4189 14.3935 35.2238 15.049 34.6205 15.7402C33.267 17.2911 31.6347 17.12 32.224 17.12V5.12C30.7973 5.12 27.797 5.30888 25.5795 7.84979C23.598 10.1202 23.488 12.9295 23.488 14.36H35.488ZM32.224 17.12H38.992V5.12H32.224V17.12ZM38.992 17.12C39.5813 17.12 37.949 17.2911 36.5955 15.7402C35.9922 15.049 35.7971 14.3935 35.7427 14.1614C35.6953 13.9596 35.728 13.9691 35.728 14.36H47.728C47.728 12.9295 47.618 10.1202 45.6365 7.84979C43.419 5.30888 40.4187 5.12 38.992 5.12V17.12ZM35.728 14.36V16.664H47.728V14.36H35.728ZM41.8504 22.6627L52.4344 22.4467L52.1896 10.4492L41.6056 10.6652L41.8504 22.6627ZM52.5188 22.4444C52.9437 22.4298 52.7325 22.4727 52.2887 22.3761C51.6771 22.2431 50.5305 21.8237 49.6077 20.6766C48.8148 19.6908 48.6876 18.7662 48.678 18.7031C48.6653 18.6192 48.688 18.7334 48.688 19.328H60.688C60.688 18.6626 60.6747 17.7778 60.5427 16.9064C60.4139 16.0558 60.0842 14.5552 58.9583 13.1554C57.7025 11.5943 56.0924 10.9229 54.8396 10.6504C53.7545 10.4143 52.7243 10.4302 52.1052 10.4516L52.5188 22.4444ZM68.5417 75.2491L30.7417 75.9691L30.9703 87.9669L68.7703 87.2469L68.5417 75.2491ZM30.6492 75.9716C30.4552 75.9783 30.7311 75.9415 31.2297 76.0871C31.8379 76.2647 32.6408 76.6763 33.3008 77.4628C33.903 78.1802 34.0754 78.8428 34.1157 79.0272C34.1518 79.1924 34.12 79.1493 34.12 78.728H22.12C22.12 80.0509 22.1825 82.8816 24.1092 85.1772C26.3815 87.8847 29.5359 88.0171 31.0628 87.9644L30.6492 75.9716ZM34.12 78.728V60.728H22.12V78.728H34.12ZM34.12 60.728C34.12 60.3371 34.1527 60.3276 34.1053 60.5294C34.0509 60.7615 33.8558 61.417 33.2525 62.1082C31.899 63.6591 30.2667 63.488 30.856 63.488V51.488C29.4293 51.488 26.429 51.6769 24.2115 54.2178C22.23 56.4882 22.12 59.2975 22.12 60.728H34.12ZM30.856 63.488H37.624V51.488H30.856V63.488ZM37.624 63.488C37.8638 63.488 37.6392 63.5168 37.1999 63.3843C36.6592 63.2212 35.8768 62.837 35.2136 62.0609C34.598 61.3405 34.4142 60.6642 34.3679 60.4552C34.3278 60.2741 34.36 60.3045 34.36 60.728H46.36C46.36 59.4053 46.2995 56.5623 44.3364 54.2651C42.1006 51.6488 39.0188 51.488 37.624 51.488V63.488ZM34.36 60.728V70.88H46.36V60.728H34.36ZM40.4815 76.8788L68.9215 76.3028L68.6785 64.3052L40.2385 64.8812L40.4815 76.8788ZM69.0498 76.2988C69.4603 76.2817 67.5553 76.5039 66.0231 74.7297C65.3535 73.9544 65.1365 73.204 65.0701 72.9058C65.0091 72.6322 65.032 72.5469 65.032 72.824H77.032C77.032 71.7904 77.0089 69.0908 75.1049 66.8863C72.8887 64.3201 69.8677 64.2543 68.5502 64.3092L69.0498 76.2988ZM65.032 72.824V78.728H77.032V72.824H65.032ZM65.032 78.728C65.032 79.0598 65.0067 78.9493 65.0746 78.641C65.1559 78.2721 65.4119 77.4305 66.1762 76.6073C66.9528 75.771 67.8023 75.4389 68.2319 75.3188C68.5857 75.2199 68.7386 75.2408 68.4339 75.2521L68.8781 87.2439C69.8291 87.2087 72.7893 87.1209 74.9698 84.7727C77.0838 82.496 77.032 79.597 77.032 78.728H65.032ZM66.304 54.68V40.28H54.304V54.68H66.304ZM60.175 34.2814L53.479 34.4254L53.737 46.4226L60.433 46.2786L60.175 34.2814ZM53.3582 34.4292C53.1855 34.4364 53.3626 34.4106 53.7263 34.486C54.1289 34.5695 54.9012 34.8077 55.6768 35.4725C57.3553 36.9112 57.232 38.6749 57.232 38.336H45.232C45.232 39.6531 45.4327 42.4968 47.8673 44.5835C50.1001 46.4974 52.7629 46.4644 53.8578 46.4188L53.3582 34.4292ZM57.232 38.336V31.568H45.232V38.336H57.232ZM57.232 31.568C57.232 31.2622 57.3399 33.1422 55.5472 34.5935C54.7962 35.2014 54.0953 35.3954 53.8506 35.4516C53.6258 35.5032 53.5656 35.487 53.8578 35.4748L53.3582 23.4852C52.5756 23.5178 50.0792 23.5808 47.9968 25.2665C45.4481 27.3298 45.232 30.2178 45.232 31.568H57.232ZM53.737 35.4786L60.433 35.3346L60.175 23.3374L53.479 23.4814L53.737 35.4786ZM66.304 29.336V18.968H54.304V29.336H66.304ZM66.304 18.968C66.304 18.5771 66.3367 18.5676 66.2893 18.7694C66.2349 19.0015 66.0398 19.657 65.4365 20.3482C64.083 21.8991 62.4507 21.728 63.04 21.728V9.728C61.6133 9.728 58.613 9.91688 56.3955 12.4578C54.414 14.7282 54.304 17.5375 54.304 18.968H66.304ZM63.04 21.728H69.808V9.728H63.04V21.728ZM69.808 21.728C70.0478 21.728 69.8232 21.7568 69.3839 21.6243C68.8432 21.4612 68.0608 21.077 67.3976 20.3009C66.782 19.5805 66.5982 18.9042 66.5519 18.6952C66.5118 18.5141 66.544 18.5445 66.544 18.968H78.544C78.544 17.6453 78.4835 14.8023 76.5204 12.5051C74.2846 9.88879 71.2028 9.728 69.808 9.728V21.728ZM66.544 18.968V54.68H78.544V18.968H66.544ZM66.544 54.68C66.544 55.1035 66.5118 55.1339 66.5519 54.9528C66.5982 54.7438 66.782 54.0675 67.3976 53.3471C68.0608 52.571 68.8432 52.1868 69.3839 52.0237C69.8232 51.8912 70.0478 51.92 69.808 51.92V63.92C71.2028 63.92 74.2846 63.7592 76.5204 61.1429C78.4835 58.8457 78.544 56.0027 78.544 54.68H66.544ZM69.808 51.92H63.04V63.92H69.808V51.92ZM63.04 51.92C62.4507 51.92 64.083 51.7489 65.4365 53.2998C66.0398 53.991 66.2349 54.6465 66.2893 54.8786C66.3367 55.0804 66.304 55.0708 66.304 54.68H54.304C54.304 56.1105 54.414 58.9198 56.3955 61.1902C58.613 63.7311 61.6133 63.92 63.04 63.92V51.92Z" fill="#11A91E" mask="url(#path-1-outside-1_1_2)"/>
<mask id="path-3-outside-2_1_2" maskUnits="userSpaceOnUse" x="70" y="8" width="62" height="82" fill="black">
<rect fill="white" x="70" y="8" width="62" height="82"/>
<path d="M78.768 43.52L122.832 42.8C124.56 42.8 125.208 43.232 125.208 44.888V50.936C125.208 52.592 124.56 53.024 122.832 53.024L106.92 53.312V56.336C115.776 57.992 119.736 63.32 119.736 69.656C119.736 77.36 113.976 83.48 100.8 83.48C87.696 83.48 81.864 77.36 81.864 69.656C81.864 63.32 85.824 57.992 94.68 56.336V53.528L78.768 53.744C77.04 53.744 76.392 53.312 76.392 51.656V45.608C76.392 43.952 77.04 43.52 78.768 43.52ZM122.472 24.224L88.92 24.944L88.992 29.912L121.896 29.264C123.912 29.192 124.272 29.912 124.272 32.144V36.464C124.272 38.696 123.912 39.344 121.896 39.344L80.064 40.064C78.048 40.064 77.4 39.056 77.328 36.824L76.68 18.248C76.608 15.728 77.328 15.008 79.416 15.008L122.472 14.288C124.56 14.288 124.848 14.648 124.848 17.168V21.344C124.848 23.864 124.56 24.152 122.472 24.224ZM100.8 74.696C105.912 74.696 107.856 72.464 107.856 69.656C107.856 66.848 105.912 64.616 100.8 64.616C95.688 64.616 93.744 66.848 93.744 69.656C93.744 72.464 95.688 74.696 100.8 74.696Z"/>
</mask>
<path d="M78.768 43.52L122.832 42.8C124.56 42.8 125.208 43.232 125.208 44.888V50.936C125.208 52.592 124.56 53.024 122.832 53.024L106.92 53.312V56.336C115.776 57.992 119.736 63.32 119.736 69.656C119.736 77.36 113.976 83.48 100.8 83.48C87.696 83.48 81.864 77.36 81.864 69.656C81.864 63.32 85.824 57.992 94.68 56.336V53.528L78.768 53.744C77.04 53.744 76.392 53.312 76.392 51.656V45.608C76.392 43.952 77.04 43.52 78.768 43.52ZM122.472 24.224L88.92 24.944L88.992 29.912L121.896 29.264C123.912 29.192 124.272 29.912 124.272 32.144V36.464C124.272 38.696 123.912 39.344 121.896 39.344L80.064 40.064C78.048 40.064 77.4 39.056 77.328 36.824L76.68 18.248C76.608 15.728 77.328 15.008 79.416 15.008L122.472 14.288C124.56 14.288 124.848 14.648 124.848 17.168V21.344C124.848 23.864 124.56 24.152 122.472 24.224ZM100.8 74.696C105.912 74.696 107.856 72.464 107.856 69.656C107.856 66.848 105.912 64.616 100.8 64.616C95.688 64.616 93.744 66.848 93.744 69.656C93.744 72.464 95.688 74.696 100.8 74.696Z" fill="white"/>
<path d="M78.768 43.52V49.52H78.817L78.866 49.5192L78.768 43.52ZM122.832 42.8V36.8H122.783L122.734 36.8008L122.832 42.8ZM122.832 53.024V47.024H122.778L122.723 47.025L122.832 53.024ZM106.92 53.312L106.811 47.313L100.92 47.4196V53.312H106.92ZM106.92 56.336H100.92V61.318L105.817 62.2338L106.92 56.336ZM94.68 56.336L95.7828 62.2338L100.68 61.318V56.336H94.68ZM94.68 53.528H100.68V47.446L94.5986 47.5286L94.68 53.528ZM78.768 53.744V59.744H78.8087L78.8494 59.7434L78.768 53.744ZM122.472 24.224L122.601 30.2226L122.64 30.2218L122.679 30.2204L122.472 24.224ZM88.92 24.944L88.7913 18.9454L82.8343 19.0732L82.9206 25.0309L88.92 24.944ZM88.992 29.912L82.9926 29.9989L83.08 36.0296L89.1101 35.9108L88.992 29.912ZM121.896 29.264L122.014 35.2628L122.062 35.2619L122.11 35.2602L121.896 29.264ZM121.896 39.344V33.344H121.844L121.793 33.3449L121.896 39.344ZM80.064 40.064V46.064H80.1156L80.1673 46.0631L80.064 40.064ZM77.328 36.824L83.3249 36.6305L83.3246 36.6227L83.3244 36.6148L77.328 36.824ZM76.68 18.248L70.6824 18.4194L70.683 18.4383L70.6836 18.4572L76.68 18.248ZM79.416 15.008V21.008H79.4662L79.5163 21.0072L79.416 15.008ZM122.472 14.288V8.288H122.422L122.372 8.28884L122.472 14.288ZM78.866 49.5192L122.93 48.7992L122.734 36.8008L78.67 37.5208L78.866 49.5192ZM122.832 48.8C123.063 48.8 122.946 48.8193 122.651 48.7551C122.328 48.6844 121.591 48.4694 120.827 47.8323C119.092 46.3865 119.208 44.5651 119.208 44.888H131.208C131.208 43.5549 131 40.6895 128.509 38.6137C126.349 36.8133 123.773 36.8 122.832 36.8V48.8ZM119.208 44.888V50.936H131.208V44.888H119.208ZM119.208 50.936C119.208 51.2589 119.092 49.4375 120.827 47.9917C121.591 47.3546 122.328 47.1396 122.651 47.0689C122.946 47.0047 123.063 47.024 122.832 47.024V59.024C123.773 59.024 126.349 59.0107 128.509 57.2103C131 55.1345 131.208 52.2691 131.208 50.936H119.208ZM122.723 47.025L106.811 47.313L107.029 59.311L122.941 59.023L122.723 47.025ZM100.92 53.312V56.336H112.92V53.312H100.92ZM105.817 62.2338C109.269 62.8792 111.168 64.12 112.188 65.2538C113.178 66.3536 113.736 67.7857 113.736 69.656H125.736C125.736 65.1903 124.314 60.7904 121.11 57.2282C117.936 53.7 113.427 51.4488 108.023 50.4382L105.817 62.2338ZM113.736 69.656C113.736 71.9018 112.962 73.5591 111.439 74.7891C109.767 76.1394 106.542 77.48 100.8 77.48V89.48C108.234 89.48 114.477 87.7606 118.979 84.1249C123.63 80.3689 125.736 75.1142 125.736 69.656H113.736ZM100.8 77.48C95.102 77.48 91.869 76.1429 90.1811 74.7837C88.6393 73.5422 87.864 71.8793 87.864 69.656H75.864C75.864 75.1367 78.0047 80.3858 82.6549 84.1303C87.159 87.7571 93.394 89.48 100.8 89.48V77.48ZM87.864 69.656C87.864 67.7857 88.4222 66.3536 89.4116 65.2538C90.4317 64.12 92.3312 62.8792 95.7828 62.2338L93.5772 50.4382C88.1728 51.4488 83.6643 53.7 80.4904 57.2282C77.2858 60.7904 75.864 65.1903 75.864 69.656H87.864ZM100.68 56.336V53.528H88.68V56.336H100.68ZM94.5986 47.5286L78.6866 47.7446L78.8494 59.7434L94.7614 59.5274L94.5986 47.5286ZM78.768 47.744C78.5366 47.744 78.6544 47.7247 78.9486 47.7889C79.272 47.8596 80.0086 48.0746 80.7731 48.7117C82.508 50.1575 82.392 51.9789 82.392 51.656H70.392C70.392 52.9891 70.6 55.8545 73.0909 57.9303C75.2514 59.7307 77.8273 59.744 78.768 59.744V47.744ZM82.392 51.656V45.608H70.392V51.656H82.392ZM82.392 45.608C82.392 45.2851 82.508 47.1065 80.7731 48.5523C80.0086 49.1894 79.272 49.4044 78.9486 49.4751C78.6544 49.5393 78.5366 49.52 78.768 49.52V37.52C77.8273 37.52 75.2514 37.5333 73.0909 39.3337C70.6 41.4095 70.392 44.2749 70.392 45.608H82.392ZM122.343 18.2254L88.7913 18.9454L89.0487 30.9426L122.601 30.2226L122.343 18.2254ZM82.9206 25.0309L82.9926 29.9989L94.9914 29.825L94.9194 24.857L82.9206 25.0309ZM89.1101 35.9108L122.014 35.2628L121.778 23.2652L88.8739 23.9132L89.1101 35.9108ZM122.11 35.2602C122.332 35.2522 122.006 35.2951 121.442 35.1311C120.728 34.9234 119.79 34.4272 119.063 33.4705C118.43 32.6371 118.293 31.8871 118.271 31.757C118.249 31.6281 118.272 31.6862 118.272 32.144H130.272C130.272 31.4858 130.25 30.6169 130.098 29.7275C129.945 28.8369 129.592 27.4929 128.617 26.2095C126.362 23.242 122.987 23.2212 121.682 23.2678L122.11 35.2602ZM118.272 32.144V36.464H130.272V32.144H118.272ZM118.272 36.464C118.272 36.9246 118.248 36.9701 118.273 36.8261C118.3 36.6711 118.447 35.9039 119.099 35.0641C119.832 34.1187 120.749 33.6552 121.386 33.4632C121.886 33.3124 122.16 33.344 121.896 33.344V45.344C123.074 45.344 126.365 45.2756 128.581 42.4179C129.575 41.1371 129.938 39.7894 130.095 38.8852C130.251 37.9919 130.272 37.1194 130.272 36.464H118.272ZM121.793 33.3449L79.9607 34.0649L80.1673 46.0631L121.999 45.3431L121.793 33.3449ZM80.064 34.064C80.0249 34.064 80.3706 34.0543 80.9009 34.2529C81.5077 34.4802 82.1529 34.9061 82.66 35.5425C83.1245 36.1257 83.2797 36.6432 83.3223 36.8129C83.361 36.9674 83.3351 36.9482 83.3249 36.6305L71.3311 37.0174C71.3751 38.3816 71.5764 40.8884 73.274 43.0195C75.2892 45.5491 78.1085 46.064 80.064 46.064V34.064ZM83.3244 36.6148L82.6764 18.0388L70.6836 18.4572L71.3316 37.0332L83.3244 36.6148ZM82.6776 18.0766C82.6665 17.6904 82.7004 17.7008 82.6515 17.9305C82.5948 18.1962 82.3948 18.8991 81.7586 19.6282C81.088 20.3965 80.3128 20.761 79.8051 20.9118C79.3867 21.036 79.1793 21.008 79.416 21.008V9.008C78.0322 9.008 74.963 9.16472 72.7174 11.7378C70.6663 14.088 70.6418 16.9977 70.6824 18.4194L82.6776 18.0766ZM79.5163 21.0072L122.572 20.2872L122.372 8.28884L79.3157 9.00883L79.5163 21.0072ZM122.472 20.288C122.937 20.288 122.771 20.3203 122.39 20.2334C121.861 20.1127 120.736 19.7221 119.808 18.5936C118.991 17.5995 118.853 16.6535 118.84 16.5659C118.825 16.4681 118.848 16.5702 118.848 17.168H130.848C130.848 16.5057 130.835 15.6179 130.701 14.7438C130.568 13.88 130.228 12.3715 129.078 10.9724C127.817 9.43887 126.229 8.80081 125.058 8.53383C124.036 8.3007 123.051 8.288 122.472 8.288V20.288ZM118.848 17.168V21.344H130.848V17.168H118.848ZM118.848 21.344C118.848 21.9451 118.825 22.0349 118.842 21.9229C118.86 21.8098 119.008 20.8422 119.851 19.8404C120.782 18.7328 121.884 18.3686 122.332 18.2618C122.649 18.186 122.771 18.2101 122.265 18.2276L122.679 30.2204C123.217 30.2019 124.158 30.163 125.117 29.9342C126.206 29.6744 127.771 29.0672 129.035 27.5636C130.211 26.1658 130.562 24.6492 130.699 23.7711C130.835 22.8941 130.848 22.0029 130.848 21.344H118.848ZM100.8 80.696C104.117 80.696 107.429 79.9862 110.016 77.8959C112.791 75.6537 113.856 72.5393 113.856 69.656H101.856C101.856 69.6678 101.855 69.5014 101.968 69.2399C102.091 68.9558 102.283 68.7162 102.474 68.5621C102.646 68.4228 102.69 68.4558 102.437 68.5269C102.173 68.601 101.656 68.696 100.8 68.696V80.696ZM113.856 69.656C113.856 66.7727 112.791 63.6583 110.016 61.4161C107.429 59.3258 104.117 58.616 100.8 58.616V70.616C101.656 70.616 102.173 70.711 102.437 70.7851C102.69 70.8562 102.646 70.8892 102.474 70.7499C102.283 70.5958 102.091 70.3562 101.968 70.0721C101.855 69.8106 101.856 69.6442 101.856 69.656H113.856ZM100.8 58.616C97.483 58.616 94.171 59.3258 91.5841 61.4161C88.8091 63.6583 87.744 66.7727 87.744 69.656H99.744C99.744 69.6442 99.7453 69.8106 99.6318 70.0721C99.5086 70.3562 99.3167 70.5958 99.1259 70.7499C98.9536 70.8892 98.9102 70.8562 99.1635 70.7851C99.4269 70.711 99.9437 70.616 100.8 70.616V58.616ZM87.744 69.656C87.744 72.5393 88.8091 75.6537 91.5841 77.8959C94.171 79.9862 97.483 80.696 100.8 80.696V68.696C99.9437 68.696 99.4269 68.601 99.1635 68.5269C98.9102 68.4558 98.9536 68.4228 99.1259 68.5621C99.3167 68.7162 99.5086 68.9558 99.6318 69.2399C99.7453 69.5014 99.744 69.6678 99.744 69.656H87.744Z" fill="#11A91E" mask="url(#path-3-outside-2_1_2)"/>
<mask id="path-5-outside-3_1_2" maskUnits="userSpaceOnUse" x="119" y="9" width="74" height="81" fill="black">
<rect fill="white" x="119" y="9" width="74" height="81"/>
<path d="M163.248 17.888V23.072C163.248 25.592 162.96 25.88 160.872 25.952L151.008 26.168V29.12C151.008 30.848 150.792 32.648 152.16 33.584L163.752 42.008C164.976 42.872 164.904 43.664 164.112 44.744L159.432 50.72C158.568 51.872 157.632 51.44 156.48 50.648L144.888 42.296L133.728 51.368C132.648 52.304 131.856 52.52 130.776 51.44L125.664 45.968C124.872 45.032 124.944 44.168 126.024 43.232L137.616 33.584C138.84 32.504 138.768 30.848 138.768 29.12V26.456L128.76 26.672C126.744 26.744 126.384 26.312 126.384 23.792V18.608C126.384 16.088 126.744 15.8 128.76 15.728L160.872 15.008C162.96 14.936 163.248 15.368 163.248 17.888ZM158.208 83.408C146.256 83.408 138.912 77.648 138.912 68.72C138.912 59.792 146.256 54.032 158.208 54.032C170.16 54.032 177.504 59.792 177.504 68.72C177.504 77.648 170.16 83.408 158.208 83.408ZM167.424 48.2V18.968C167.424 16.448 168.144 15.728 170.16 15.728H176.928C179.016 15.728 179.664 16.448 179.664 18.968V27.968L184.488 27.824C186.216 27.752 186.864 28.256 186.864 29.912V36.68C186.864 38.336 186.216 38.696 184.488 38.768L179.664 38.912V48.2C179.664 50.72 179.016 51.44 176.928 51.44H170.16C168.144 51.44 167.424 50.72 167.424 48.2ZM158.208 73.976C163.32 73.976 165.552 71.6 165.552 68.72C165.552 65.84 163.32 63.464 158.208 63.464C153.096 63.464 150.864 65.84 150.864 68.72C150.864 71.6 153.096 73.976 158.208 73.976Z"/>
</mask>
<path d="M163.248 17.888V23.072C163.248 25.592 162.96 25.88 160.872 25.952L151.008 26.168V29.12C151.008 30.848 150.792 32.648 152.16 33.584L163.752 42.008C164.976 42.872 164.904 43.664 164.112 44.744L159.432 50.72C158.568 51.872 157.632 51.44 156.48 50.648L144.888 42.296L133.728 51.368C132.648 52.304 131.856 52.52 130.776 51.44L125.664 45.968C124.872 45.032 124.944 44.168 126.024 43.232L137.616 33.584C138.84 32.504 138.768 30.848 138.768 29.12V26.456L128.76 26.672C126.744 26.744 126.384 26.312 126.384 23.792V18.608C126.384 16.088 126.744 15.8 128.76 15.728L160.872 15.008C162.96 14.936 163.248 15.368 163.248 17.888ZM158.208 83.408C146.256 83.408 138.912 77.648 138.912 68.72C138.912 59.792 146.256 54.032 158.208 54.032C170.16 54.032 177.504 59.792 177.504 68.72C177.504 77.648 170.16 83.408 158.208 83.408ZM167.424 48.2V18.968C167.424 16.448 168.144 15.728 170.16 15.728H176.928C179.016 15.728 179.664 16.448 179.664 18.968V27.968L184.488 27.824C186.216 27.752 186.864 28.256 186.864 29.912V36.68C186.864 38.336 186.216 38.696 184.488 38.768L179.664 38.912V48.2C179.664 50.72 179.016 51.44 176.928 51.44H170.16C168.144 51.44 167.424 50.72 167.424 48.2ZM158.208 73.976C163.32 73.976 165.552 71.6 165.552 68.72C165.552 65.84 163.32 63.464 158.208 63.464C153.096 63.464 150.864 65.84 150.864 68.72C150.864 71.6 153.096 73.976 158.208 73.976Z" fill="white"/>
<path d="M160.872 25.952L161.003 31.9506L161.041 31.9497L161.079 31.9484L160.872 25.952ZM151.008 26.168L150.877 20.1694L145.008 20.2979V26.168H151.008ZM152.16 33.584L155.687 28.7303L155.618 28.6802L155.548 28.6322L152.16 33.584ZM163.752 42.008L160.225 46.8617L160.258 46.886L160.292 46.9098L163.752 42.008ZM164.112 44.744L168.836 48.4434L168.894 48.3687L168.95 48.2922L164.112 44.744ZM159.432 50.72L154.708 47.0206L154.67 47.0699L154.632 47.12L159.432 50.72ZM156.48 50.648L152.973 55.5161L153.026 55.5548L153.081 55.5922L156.48 50.648ZM144.888 42.296L148.395 37.4279L144.668 34.7424L141.103 37.6402L144.888 42.296ZM133.728 51.368L129.943 46.7122L129.87 46.7719L129.798 46.8339L133.728 51.368ZM130.776 51.44L126.392 55.536L126.461 55.6105L126.533 55.6826L130.776 51.44ZM125.664 45.968L121.084 49.8437L121.179 49.9562L121.28 50.064L125.664 45.968ZM126.024 43.232L122.186 38.6203L122.14 38.6586L122.094 38.6979L126.024 43.232ZM137.616 33.584L141.454 38.1957L141.521 38.1403L141.586 38.083L137.616 33.584ZM138.768 26.456H144.768V20.3251L138.639 20.4574L138.768 26.456ZM128.76 26.672L128.631 20.6734L128.588 20.6743L128.546 20.6758L128.76 26.672ZM128.76 15.728L128.626 9.72951L128.586 9.7304L128.546 9.73182L128.76 15.728ZM160.872 15.008L161.006 21.0065L161.043 21.0057L161.079 21.0044L160.872 15.008ZM179.664 27.968H173.664V34.1498L179.843 33.9653L179.664 27.968ZM184.488 27.824L184.667 33.8213L184.702 33.8203L184.738 33.8188L184.488 27.824ZM184.488 38.768L184.667 44.7653L184.702 44.7643L184.738 44.7628L184.488 38.768ZM179.664 38.912L179.485 32.9147L173.664 33.0884V38.912H179.664ZM157.248 17.888V23.072H169.248V17.888H157.248ZM157.248 23.072C157.248 23.6731 157.225 23.7629 157.242 23.6509C157.26 23.5378 157.408 22.5702 158.251 21.5684C159.182 20.4608 160.284 20.0966 160.732 19.9898C161.049 19.914 161.171 19.9381 160.665 19.9556L161.079 31.9484C161.617 31.9299 162.558 31.891 163.517 31.6622C164.606 31.4023 166.171 30.7952 167.435 29.2916C168.611 27.8938 168.962 26.3772 169.099 25.4991C169.235 24.6221 169.248 23.7309 169.248 23.072H157.248ZM160.741 19.9534L150.877 20.1694L151.139 32.1666L161.003 31.9506L160.741 19.9534ZM145.008 26.168V29.12H157.008V26.168H145.008ZM145.008 29.12C145.008 29.4314 144.932 31.1652 145.137 32.5357C145.395 34.2615 146.215 36.7862 148.772 38.5358L155.548 28.6322C156.055 28.9787 156.454 29.4492 156.714 29.9424C156.946 30.3854 156.998 30.7162 157.005 30.7623C157.01 30.7979 156.996 30.7196 156.996 30.399C156.995 30.2463 156.997 30.0813 157.001 29.8592C157.004 29.6541 157.008 29.3895 157.008 29.12H145.008ZM148.633 38.4377L160.225 46.8617L167.279 37.1543L155.687 28.7303L148.633 38.4377ZM160.292 46.9098C160.255 46.8836 159.924 46.65 159.566 46.1526C159.164 45.5946 158.79 44.7835 158.708 43.7832C158.558 41.9527 159.492 40.8979 159.274 41.1958L168.95 48.2922C169.524 47.5101 170.89 45.5193 170.668 42.8068C170.421 39.7754 168.436 37.97 167.212 37.1062L160.292 46.9098ZM159.388 41.0446L154.708 47.0206L164.156 54.4194L168.836 48.4434L159.388 41.0446ZM154.632 47.12C154.825 46.8633 155.306 46.3129 156.171 45.8974C157.103 45.45 158.057 45.3618 158.835 45.4628C159.516 45.5511 159.946 45.7668 160.026 45.8072C160.114 45.8523 160.094 45.8516 159.879 45.7037L153.081 55.5922C153.576 55.933 155.195 57.0913 157.293 57.3632C158.557 57.5272 159.979 57.3805 161.366 56.7148C162.685 56.0811 163.607 55.1527 164.232 54.32L154.632 47.12ZM159.987 45.7799L148.395 37.4279L141.381 47.1641L152.973 55.5161L159.987 45.7799ZM141.103 37.6402L129.943 46.7122L137.513 56.0238L148.673 46.9518L141.103 37.6402ZM129.798 46.8339C129.687 46.9305 129.787 46.8269 130.049 46.6811C130.333 46.5231 130.938 46.2434 131.792 46.1777C133.813 46.0222 134.967 47.1461 135.019 47.1974L126.533 55.6826C127.665 56.8139 129.755 58.3698 132.712 58.1423C135.239 57.9479 136.976 56.4931 137.658 55.9021L129.798 46.8339ZM135.16 47.344L130.048 41.872L121.28 50.064L126.392 55.536L135.16 47.344ZM130.244 42.0923C130.453 42.3384 131.317 43.5017 131.099 45.3149C131 46.1395 130.704 46.7685 130.446 47.1698C130.203 47.5475 129.986 47.7381 129.954 47.7661L122.094 38.6979C121.028 39.6217 119.493 41.3191 119.185 43.8851C118.859 46.5983 120.083 48.6616 121.084 49.8437L130.244 42.0923ZM129.862 47.8437L141.454 38.1957L133.778 28.9723L122.186 38.6203L129.862 47.8437ZM141.586 38.083C143.521 36.3757 144.27 34.2785 144.56 32.6377C144.809 31.2232 144.768 29.72 144.768 29.12H132.768C132.768 29.2362 132.768 29.3526 132.769 29.4558C132.769 29.5624 132.769 29.6587 132.769 29.7517C132.768 29.939 132.767 30.0875 132.763 30.2158C132.755 30.485 132.739 30.5685 132.742 30.5523C132.747 30.5252 132.787 30.3122 132.935 30.0123C133.096 29.688 133.336 29.3587 133.646 29.085L141.586 38.083ZM144.768 29.12V26.456H132.768V29.12H144.768ZM138.639 20.4574L128.631 20.6734L128.889 32.6706L138.897 32.4546L138.639 20.4574ZM128.546 20.6758C128.154 20.6898 128.376 20.6476 128.827 20.7467C129.438 20.8812 130.541 21.2919 131.442 22.3827C132.228 23.3342 132.374 24.2327 132.391 24.3343C132.41 24.447 132.384 24.3527 132.384 23.792H120.384C120.384 24.4913 120.403 25.396 120.552 26.2962C120.7 27.1853 121.062 28.6598 122.19 30.0253C123.433 31.5301 125.004 32.1928 126.25 32.4668C127.335 32.7054 128.358 32.6902 128.974 32.6682L128.546 20.6758ZM132.384 23.792V18.608H120.384V23.792H132.384ZM132.384 18.608C132.384 18.041 132.411 17.9717 132.386 18.114C132.36 18.2675 132.19 19.2068 131.357 20.1717C130.448 21.2236 129.392 21.5789 128.945 21.6868C128.623 21.7643 128.494 21.7413 128.974 21.7242L128.546 9.73182C128.018 9.75067 127.088 9.7907 126.132 10.0212C125.05 10.2821 123.526 10.8804 122.275 12.3283C121.1 13.6892 120.714 15.1775 120.557 16.096C120.402 17.0032 120.384 17.915 120.384 18.608H132.384ZM128.894 21.7265L161.006 21.0065L160.738 9.0095L128.626 9.72951L128.894 21.7265ZM161.079 21.0044C161.504 20.9898 161.293 21.0327 160.849 20.9361C160.237 20.8031 159.09 20.3837 158.168 19.2365C157.375 18.2508 157.248 17.3262 157.238 17.2631C157.225 17.1792 157.248 17.2934 157.248 17.888H169.248C169.248 17.2226 169.235 16.3378 169.103 15.4664C168.974 14.6158 168.644 13.1152 167.518 11.7154C166.263 10.1543 164.652 9.48294 163.4 9.21038C162.314 8.97432 161.284 8.99021 160.665 9.01156L161.079 21.0044ZM158.208 77.408C153.119 77.408 149.714 76.1746 147.731 74.6524C145.912 73.2563 144.912 71.3593 144.912 68.72H132.912C132.912 75.0087 135.584 80.4557 140.425 84.1716C145.102 87.7614 151.345 89.408 158.208 89.408V77.408ZM144.912 68.72C144.912 66.0807 145.912 64.1837 147.731 62.7876C149.714 61.2654 153.119 60.032 158.208 60.032V48.032C151.345 48.032 145.102 49.6786 140.425 53.2684C135.584 56.9843 132.912 62.4313 132.912 68.72H144.912ZM158.208 60.032C163.297 60.032 166.702 61.2654 168.685 62.7876C170.504 64.1837 171.504 66.0807 171.504 68.72H183.504C183.504 62.4313 180.832 56.9843 175.991 53.2684C171.314 49.6786 165.071 48.032 158.208 48.032V60.032ZM171.504 68.72C171.504 71.3593 170.504 73.2563 168.685 74.6524C166.702 76.1746 163.297 77.408 158.208 77.408V89.408C165.071 89.408 171.314 87.7614 175.991 84.1716C180.832 80.4557 183.504 75.0087 183.504 68.72H171.504ZM173.424 48.2V18.968H161.424V48.2H173.424ZM173.424 18.968C173.424 18.5771 173.457 18.5676 173.409 18.7694C173.355 19.0015 173.16 19.657 172.557 20.3482C171.203 21.8991 169.571 21.728 170.16 21.728V9.728C168.733 9.728 165.733 9.91688 163.515 12.4578C161.534 14.7282 161.424 17.5375 161.424 18.968H173.424ZM170.16 21.728H176.928V9.728H170.16V21.728ZM176.928 21.728C177.168 21.728 176.943 21.7568 176.504 21.6243C175.963 21.4612 175.181 21.077 174.518 20.3009C173.902 19.5805 173.718 18.9042 173.672 18.6952C173.632 18.5141 173.664 18.5445 173.664 18.968H185.664C185.664 17.6453 185.603 14.8023 183.64 12.5051C181.405 9.88879 178.323 9.728 176.928 9.728V21.728ZM173.664 18.968V27.968H185.664V18.968H173.664ZM179.843 33.9653L184.667 33.8213L184.309 21.8267L179.485 21.9707L179.843 33.9653ZM184.738 33.8188C184.911 33.8116 184.733 33.8374 184.37 33.762C183.967 33.6785 183.195 33.4403 182.419 32.7755C180.741 31.3368 180.864 29.5731 180.864 29.912H192.864C192.864 28.5949 192.663 25.7512 190.229 23.6645C187.996 21.7506 185.333 21.7836 184.238 21.8292L184.738 33.8188ZM180.864 29.912V36.68H192.864V29.912H180.864ZM180.864 36.68C180.864 36.9858 180.756 35.1058 182.549 33.6545C183.3 33.0466 184.001 32.8526 184.245 32.7964C184.47 32.7448 184.53 32.761 184.238 32.7732L184.738 44.7628C185.52 44.7302 188.017 44.6672 190.099 42.9815C192.648 40.9182 192.864 38.0302 192.864 36.68H180.864ZM184.309 32.7707L179.485 32.9147L179.843 44.9093L184.667 44.7653L184.309 32.7707ZM173.664 38.912V48.2H185.664V38.912H173.664ZM173.664 48.2C173.664 48.6235 173.632 48.6539 173.672 48.4728C173.718 48.2638 173.902 47.5875 174.518 46.8671C175.181 46.091 175.963 45.7068 176.504 45.5437C176.943 45.4112 177.168 45.44 176.928 45.44V57.44C178.323 57.44 181.405 57.2792 183.64 54.6629C185.603 52.3657 185.664 49.5227 185.664 48.2H173.664ZM176.928 45.44H170.16V57.44H176.928V45.44ZM170.16 45.44C169.571 45.44 171.203 45.2689 172.557 46.8198C173.16 47.511 173.355 48.1665 173.409 48.3986C173.457 48.6004 173.424 48.5908 173.424 48.2H161.424C161.424 49.6305 161.534 52.4398 163.515 54.7102C165.733 57.2511 168.733 57.44 170.16 57.44V45.44ZM158.208 79.976C161.614 79.976 164.938 79.1911 167.537 77.1201C170.28 74.9335 171.552 71.8299 171.552 68.72H159.552C159.552 68.6593 159.566 68.48 159.674 68.2462C159.786 68.0016 159.942 67.8278 160.057 67.7359C160.262 67.5729 159.914 67.976 158.208 67.976V79.976ZM171.552 68.72C171.552 65.6101 170.28 62.5065 167.537 60.3199C164.938 58.2489 161.614 57.464 158.208 57.464V69.464C159.914 69.464 160.262 69.8671 160.057 69.7041C159.942 69.6122 159.786 69.4384 159.674 69.1938C159.566 68.96 159.552 68.7807 159.552 68.72H171.552ZM158.208 57.464C154.802 57.464 151.478 58.2489 148.879 60.3199C146.136 62.5065 144.864 65.6101 144.864 68.72H156.864C156.864 68.7807 156.85 68.96 156.742 69.1938C156.63 69.4384 156.474 69.6122 156.359 69.7041C156.154 69.8671 156.502 69.464 158.208 69.464V57.464ZM144.864 68.72C144.864 71.8299 146.136 74.9335 148.879 77.1201C151.478 79.1911 154.802 79.976 158.208 79.976V67.976C156.502 67.976 156.154 67.5729 156.359 67.7359C156.474 67.8278 156.63 68.0016 156.742 68.2462C156.85 68.48 156.864 68.6593 156.864 68.72H144.864Z" fill="#11A91E" mask="url(#path-5-outside-3_1_2)"/>
<mask id="path-7-outside-4_1_2" maskUnits="userSpaceOnUse" x="181" y="9" width="69" height="68" fill="black">
<rect fill="white" x="181" y="9" width="69" height="68"/>
<path d="M188.464 66.92L187.744 18.536C187.744 16.88 188.392 16.52 190.12 16.448L221.512 15.728C223.24 15.656 223.888 16.16 223.888 17.816V24.8C223.888 26.456 223.24 26.816 221.512 26.888L200.344 27.32L200.416 37.256L215.968 36.896C217.696 36.896 218.344 37.328 218.344 38.984V45.752C218.344 47.408 217.696 47.84 215.968 47.84L200.56 48.2L200.704 59.144L220 58.712C221.728 58.64 222.376 59.144 222.376 60.8V67.352C222.376 69.008 221.728 69.368 220 69.44L191.2 70.16C189.112 70.232 188.536 69.44 188.464 66.92ZM231.304 36.176V20.408C231.304 17.888 232.024 17.168 234.04 17.168H240.808C242.896 17.168 243.544 17.888 243.544 20.408V64.76C243.544 67.28 242.896 68 240.808 68H234.04C232.024 68 231.304 67.28 231.304 64.76V47.12L224.608 47.264C222.88 47.336 222.232 46.832 222.232 45.176V38.408C222.232 36.752 222.88 36.392 224.608 36.32L231.304 36.176Z"/>
</mask>
<path d="M188.464 66.92L187.744 18.536C187.744 16.88 188.392 16.52 190.12 16.448L221.512 15.728C223.24 15.656 223.888 16.16 223.888 17.816V24.8C223.888 26.456 223.24 26.816 221.512 26.888L200.344 27.32L200.416 37.256L215.968 36.896C217.696 36.896 218.344 37.328 218.344 38.984V45.752C218.344 47.408 217.696 47.84 215.968 47.84L200.56 48.2L200.704 59.144L220 58.712C221.728 58.64 222.376 59.144 222.376 60.8V67.352C222.376 69.008 221.728 69.368 220 69.44L191.2 70.16C189.112 70.232 188.536 69.44 188.464 66.92ZM231.304 36.176V20.408C231.304 17.888 232.024 17.168 234.04 17.168H240.808C242.896 17.168 243.544 17.888 243.544 20.408V64.76C243.544 67.28 242.896 68 240.808 68H234.04C232.024 68 231.304 67.28 231.304 64.76V47.12L224.608 47.264C222.88 47.336 222.232 46.832 222.232 45.176V38.408C222.232 36.752 222.88 36.392 224.608 36.32L231.304 36.176Z" fill="white"/>
<path d="M188.464 66.92L182.465 67.0093L182.465 67.0503L182.466 67.0914L188.464 66.92ZM187.744 18.536H181.744V18.5806L181.745 18.6253L187.744 18.536ZM190.12 16.448L189.982 10.4496L189.926 10.4509L189.87 10.4532L190.12 16.448ZM221.512 15.728L221.65 21.7264L221.706 21.7251L221.762 21.7228L221.512 15.728ZM221.512 26.888L221.634 32.8867L221.698 32.8854L221.762 32.8828L221.512 26.888ZM200.344 27.32L200.222 21.3212L194.301 21.4421L194.344 27.3635L200.344 27.32ZM200.416 37.256L194.416 37.2995L194.46 43.3955L200.555 43.2544L200.416 37.256ZM215.968 36.896V30.896H215.899L215.829 30.8976L215.968 36.896ZM215.968 47.84V41.84H215.898L215.828 41.8416L215.968 47.84ZM200.56 48.2L200.42 42.2016L194.482 42.3404L194.561 48.2789L200.56 48.2ZM200.704 59.144L194.705 59.2229L194.784 65.278L200.838 65.1425L200.704 59.144ZM220 58.712L220.134 64.7105L220.192 64.7092L220.25 64.7068L220 58.712ZM220 69.44L220.15 75.4381L220.2 75.4369L220.25 75.4348L220 69.44ZM191.2 70.16L191.05 64.1619L191.022 64.1626L190.993 64.1636L191.2 70.16ZM231.304 36.176L231.433 42.1746L237.304 42.0484V36.176H231.304ZM231.304 47.12H237.304V40.9896L231.175 41.1214L231.304 47.12ZM224.608 47.264L224.479 41.2654L224.419 41.2667L224.358 41.2692L224.608 47.264ZM224.608 36.32L224.479 30.3214L224.419 30.3227L224.358 30.3252L224.608 36.32ZM194.463 66.8307L193.743 18.4467L181.745 18.6253L182.465 67.0093L194.463 66.8307ZM193.744 18.536C193.744 18.2302 193.852 20.1102 192.059 21.5615C191.308 22.1694 190.607 22.3634 190.363 22.4196C190.138 22.4712 190.078 22.455 190.37 22.4428L189.87 10.4532C189.088 10.4858 186.591 10.5488 184.509 12.2345C181.96 14.2978 181.744 17.1858 181.744 18.536H193.744ZM190.258 22.4464L221.65 21.7264L221.374 9.72958L189.982 10.4496L190.258 22.4464ZM221.762 21.7228C221.935 21.7156 221.757 21.7414 221.394 21.666C220.991 21.5825 220.219 21.3443 219.443 20.6795C217.765 19.2408 217.888 17.4771 217.888 17.816H229.888C229.888 16.4989 229.687 13.6552 227.253 11.5685C225.02 9.65462 222.357 9.68758 221.262 9.7332L221.762 21.7228ZM217.888 17.816V24.8H229.888V17.816H217.888ZM217.888 24.8C217.888 25.1058 217.78 23.2258 219.573 21.7745C220.324 21.1666 221.025 20.9726 221.269 20.9164C221.494 20.8648 221.554 20.881 221.262 20.8932L221.762 32.8828C222.544 32.8502 225.041 32.7872 227.123 31.1015C229.672 29.0382 229.888 26.1502 229.888 24.8H217.888ZM221.39 20.8892L200.222 21.3212L200.466 33.3188L221.634 32.8867L221.39 20.8892ZM194.344 27.3635L194.416 37.2995L206.416 37.2125L206.344 27.2765L194.344 27.3635ZM200.555 43.2544L216.107 42.8944L215.829 30.8976L200.277 31.2576L200.555 43.2544ZM215.968 42.896C216.199 42.896 216.082 42.9153 215.787 42.8511C215.464 42.7804 214.727 42.5654 213.963 41.9283C212.228 40.4825 212.344 38.6611 212.344 38.984H224.344C224.344 37.6509 224.136 34.7855 221.645 32.7097C219.485 30.9093 216.909 30.896 215.968 30.896V42.896ZM212.344 38.984V45.752H224.344V38.984H212.344ZM212.344 45.752C212.344 46.0749 212.228 44.2535 213.963 42.8077C214.727 42.1706 215.464 41.9556 215.787 41.8849C216.082 41.8207 216.199 41.84 215.968 41.84V53.84C216.909 53.84 219.485 53.8267 221.645 52.0263C224.136 49.9505 224.344 47.0851 224.344 45.752H212.344ZM215.828 41.8416L200.42 42.2016L200.7 54.1984L216.108 53.8384L215.828 41.8416ZM194.561 48.2789L194.705 59.2229L206.703 59.0651L206.559 48.1211L194.561 48.2789ZM200.838 65.1425L220.134 64.7105L219.866 52.7135L200.57 53.1455L200.838 65.1425ZM220.25 64.7068C220.423 64.6996 220.245 64.7254 219.882 64.65C219.479 64.5665 218.707 64.3283 217.931 63.6635C216.253 62.2248 216.376 60.4611 216.376 60.8H228.376C228.376 59.4829 228.175 56.6392 225.741 54.5525C223.508 52.6386 220.845 52.6716 219.75 52.7172L220.25 64.7068ZM216.376 60.8V67.352H228.376V60.8H216.376ZM216.376 67.352C216.376 67.6578 216.268 65.7778 218.061 64.3265C218.812 63.7186 219.513 63.5246 219.757 63.4684C219.982 63.4168 220.042 63.433 219.75 63.4452L220.25 75.4348C221.032 75.4022 223.529 75.3392 225.611 73.6535C228.16 71.5902 228.376 68.7022 228.376 67.352H216.376ZM219.85 63.4419L191.05 64.1619L191.35 76.1581L220.15 75.4381L219.85 63.4419ZM190.993 64.1636C190.794 64.1704 191.088 64.132 191.609 64.2865C192.252 64.4773 193.061 64.911 193.712 65.7036C194.293 66.4103 194.451 67.0463 194.48 67.1751C194.507 67.2924 194.475 67.2091 194.462 66.7486L182.466 67.0914C182.501 68.3123 182.6 71.0808 184.44 73.3204C186.701 76.073 189.87 76.2094 191.407 76.1564L190.993 64.1636ZM237.304 36.176V20.408H225.304V36.176H237.304ZM237.304 20.408C237.304 20.0171 237.337 20.0076 237.289 20.2094C237.235 20.4415 237.04 21.097 236.437 21.7882C235.083 23.3391 233.451 23.168 234.04 23.168V11.168C232.613 11.168 229.613 11.3569 227.395 13.8978C225.414 16.1682 225.304 18.9775 225.304 20.408H237.304ZM234.04 23.168H240.808V11.168H234.04V23.168ZM240.808 23.168C241.048 23.168 240.823 23.1968 240.384 23.0643C239.843 22.9012 239.061 22.517 238.398 21.7409C237.782 21.0205 237.598 20.3442 237.552 20.1352C237.512 19.9541 237.544 19.9845 237.544 20.408H249.544C249.544 19.0853 249.483 16.2423 247.52 13.9451C245.285 11.3288 242.203 11.168 240.808 11.168V23.168ZM237.544 20.408V64.76H249.544V20.408H237.544ZM237.544 64.76C237.544 65.1835 237.512 65.2139 237.552 65.0328C237.598 64.8238 237.782 64.1475 238.398 63.4271C239.061 62.651 239.843 62.2668 240.384 62.1037C240.823 61.9712 241.048 62 240.808 62V74C242.203 74 245.285 73.8392 247.52 71.2229C249.483 68.9257 249.544 66.0827 249.544 64.76H237.544ZM240.808 62H234.04V74H240.808V62ZM234.04 62C233.451 62 235.083 61.8289 236.437 63.3798C237.04 64.071 237.235 64.7265 237.289 64.9586C237.337 65.1604 237.304 65.1508 237.304 64.76H225.304C225.304 66.1905 225.414 68.9998 227.395 71.2702C229.613 73.8111 232.613 74 234.04 74V62ZM237.304 64.76V47.12H225.304V64.76H237.304ZM231.175 41.1214L224.479 41.2654L224.737 53.2626L231.433 53.1186L231.175 41.1214ZM224.358 41.2692C224.185 41.2764 224.363 41.2506 224.726 41.326C225.129 41.4095 225.901 41.6477 226.677 42.3125C228.355 43.7512 228.232 45.5149 228.232 45.176H216.232C216.232 46.4931 216.433 49.3368 218.867 51.4235C221.1 53.3374 223.763 53.3044 224.858 53.2588L224.358 41.2692ZM228.232 45.176V38.408H216.232V45.176H228.232ZM228.232 38.408C228.232 38.1022 228.34 39.9822 226.547 41.4335C225.796 42.0414 225.095 42.2354 224.851 42.2916C224.626 42.3432 224.566 42.327 224.858 42.3148L224.358 30.3252C223.576 30.3578 221.079 30.4208 218.997 32.1065C216.448 34.1698 216.232 37.0578 216.232 38.408H228.232ZM224.737 42.3186L231.433 42.1746L231.175 30.1774L224.479 30.3214L224.737 42.3186Z" fill="#11A91E" mask="url(#path-7-outside-4_1_2)"/>
</g>
<defs>
<clipPath id="clip0_1_2">
<rect width="256" height="96" fill="white"/>
</clipPath>
</defs>
</svg>
